# xmcd
#
# Track frame offsets: 
#        182
#        22447
#        40417
#        55927
#        74580
#        89317
#        114855
#        133847
#        152737
#        175712
#        196590
#
# Disc length: 2894 seconds
#
# Revision: 3
# Processed by: cddbd v1.5.2PL0 Copyright (c) Steve Scherf et al.
# Submitted via: ExactAudioCopy v0.95b2
#
DISCID=960b4c0b
DTITLE=Michael Jones - A Consommer sans Moderation
DYEAR=1997
DGENRE=Blues
TTITLE0=Le choix désarme
TTITLE1=Le temps lui fait mentir
TTITLE2=L'Irlandaise
TTITLE3=Va-t'en
TTITLE4=Sans rancune
TTITLE5=Oublié
TTITLE6=La route est longue
TTITLE7=Vivre pour mourir
TTITLE8=Fleur de St. Gilles
TTITLE9=Déjà demain
TTITLE10=Le blues du piano bar
EXTD=12 % Blues
EXTT0=
EXTT1=
EXTT2=
EXTT3=
EXTT4=
EXTT5=
EXTT6=
EXTT7=
EXTT8=
EXTT9=
EXTT10=
PLAYORDER=
